<?xml version="1.0" encoding="UTF-8"?><svg id="_レイヤー_2" xmlns="http://www.w3.org/2000/svg" viewBox="0 0 1047.76 94.26"><g id="_レイヤー_1-2"><path d="M66.1,16c0,.8-4.1,2.2-9.4,2.2h-1.9v-5.8h-17.2v4c0,.7-2.5,1.6-6,2-.3.9-1.1,1.6-2.8,1.9v2.8h3.9l4.3-5s4.9,3.6,8,6.3c-.2,1.1-1.2,1.6-2.6,1.6h-2.1c1.1.8,5.4,4,8.2,6.4-.3,1.1-1.2,1.6-2.6,1.6h-2l.3,2.7c2,.8,2.6,1.5,2.6,2.7,0,2.6-2.2,3.7-9.5,3.8.8.6,5.2,3.8,8.1,6.2-.3,1.1-1.2,1.6-2.6,1.6h-14v4c5-.4,10.3-.9,15.6-1.4l.1,1.6c-8.1,2.4-19.4,5.4-35.3,9.3-.5,1.2-1.6,2-2.6,2.2l-3.9-9.9c3.5-.1,9.2-.5,16.1-1v-4.8H6.6l-.8-2.9h13v-6.8l9.1.8c-1.2-1-1.5-2.6-1.5-5v-3.1h-4.5c-3.4,7.8-11.3,11.8-20.7,13.8l-.6-1.4c6.3-2.9,9.8-7.1,11.4-12.4H1.8l-.8-2.8h17.8v-5.2H5.5l-.8-2.9h14.1v-6.3l7.7.7v-5.1H.7l-.7-2.9h26.5V0l14.6,1.3c-.1,1.3-.9,2.3-3.5,2.6v5.6h17.2V0l14.9,1.2c-.1,1.4-.9,2.4-3.6,2.7v5.6h11.4l5.8-7.1s6.1,4.8,9.9,8.4c-.2,1.1-1.3,1.6-2.7,1.6h-24.4v3.6ZM81.41,64.8s6.6,4.8,10.7,8.1c-.3,1.1-1.3,1.6-2.7,1.6h-45.9c-4,2.8-8.5,5.7-12.8,8.1,9.4-.1,20.4-.3,32-.6-2.1-1.6-4.4-3.2-6.8-4.7l.5-1.2c36.6.9,29,22.4,18.3,17.4-1.6-2.2-4.7-5.5-8.7-8.9-12,2.2-28.1,4.6-50.4,7.5-.6,1.1-1.8,1.8-2.8,2l-5.1-11.5c3.9.1,9.5.1,16.3,0,1.5-2.5,3-5.5,4.2-8.1H2.5l-.8-2.7h73.8l5.9-7ZM67.6,55.7s6.6,4.7,10.6,8.1c-.2,1.1-1.3,1.6-2.7,1.6H20.9l-.8-2.9h41.7l5.8-6.8ZM28.8,26v5.2h6.8l4.2-5.2h-11ZM37.1,43.2h-4.3c-.6,0-1.2,0-1.7-.1-.3.6-1,1.1-2.3,1.3v3.7h4.2l4.1-4.9ZM39.4,37.2c.5,0,1-.1,1.4-.3.5-.5,1.2-1.5,1.9-2.9h-8.6v2c0,1,.1,1.2,1.1,1.2h4.2ZM90.71,53c2.1,2.5,2.8,4.6,1.9,6.8-2,3.9-7.1,3.3-10.5,1.2-8.5-5.2-10.2-16.9-10.5-31.1h-5.4c-.3,3.6-.8,7-1.9,10.2,12.6,7,6.4,17.2-.6,13.1-.7-1.3-1.9-3.1-3.5-4.9-3.6,4.9-9.6,9.3-19.3,12.8l-1-1.4c8.3-5.1,12.4-11,14.4-17.7-2.1-1.9-4.5-3.8-7.1-5.6l.7-1.3c2.8.4,5.4.9,7.6,1.5.4-2.1.6-4.4.7-6.7h-8.8l-.9-2.8h9.8c.1-2.8.1-5.8.1-8.9l13.5,1.2c-.2,1.3-1.1,2.3-3.2,2.6-.1,1.7-.2,3.4-.3,5.1h4.2l5.1-5.2,9.7,7.4c-.6.7-2,1.3-3.5,1.5-.4,8.3.8,17.8,4.1,20.3.7.4,1.1.2,1.5-.7.9-1.9,1.8-4.5,2.7-7.3l1.1.1-.6,9.8Z"/><path d="M156.2,29.9c-.6,1-1.5,1.6-4,1.2-1.9,2.9-4.1,6-6.7,9.2l4.8,1.8c-.4.9-1.3,1.6-3.2,1.8v47.2c-.1.8-4.7,3-9,3h-2v-43.2c-3.2,3.2-6.6,6.2-10.3,8.8l-1-1c7.8-10.5,14.6-26.1,17.6-36.2l13.8,7.4ZM155.6,7.9c-.5,1-1.5,1.6-3.9,1.2-5.6,6.8-14.9,14.9-25,20.2l-.9-1c6.9-7.7,13.4-19.8,16.3-27.8l13.5,7.4ZM178.21,24.7v65.1c0,1.1-4.7,3.8-8.8,3.8h-2v-54.1c-.3.1-.6.2-1,.2-2.6,15-7,28.4-14.3,37.3l-1.5-.9c3.6-11.1,5.8-26.5,6-41l10.8,1.6v-12h-13.5l-.8-2.8h14.3V1l14.4,1.4c-.3,1.5-1,2.5-3.6,2.9v16.6h3.9l4.2-5.1-.4-.3c-.1-4.2-2-9.1-4.1-12.2l1-.6c5.4,1.5,8.6,3.6,10.3,5.8h9.9l5.7-7.7s6.4,5.3,10.2,8.9c-.2,1.1-1.3,1.6-2.7,1.6h-21.8c.5,2.7-1.1,5-3.4,5.7,2,1.5,4.6,3.4,6.5,5.1-.3,1.1-1.2,1.6-2.6,1.6h-16.7ZM181.31,34.6c23.9,21.9,9,41.6,3.2,31.4.2-7.6-.4-21-4.6-30.8l1.4-.6ZM210.21,24.2s6.7,5.6,10.8,9.4c-.3,1.1-1.4,1.6-2.8,1.6h-6.6v45.4c0,7.4-1.6,12.5-13.8,13.5-.1-3.3-.4-6-1.6-7.7-1.3-1.5-3.2-2.8-7.6-3.5v-1.4s8.2.6,10,.6c1.5,0,1.9-.6,1.9-1.8v-45.1h-10.6l-.8-2.9h15l6.1-8.1Z"/><path d="M296.41,23.9c4.3-1.4,7.7-2.9,10.4-4.4,2-1.1,3.5-2.3,4.4-2.3,2.5,0,7.4,1.4,7.4,5.3,0,2.8-2.2,4.4-9.5,7-2.9,1.1-9.3,3.1-15.6,4.6-1.2,4.2-2.5,8.9-4,13.2-3.7,11.4-10,29.3-13.9,36.5-1.8,3.4-3.2,5.5-6.9,5.5-3,0-5.4-3.3-5.4-7.4s2.5-5.5,5.3-10.2c3.7-6,8.5-15.1,12.9-27.8.8-2.3,1.6-5.1,2.4-8-2.8.4-5.8.7-8.1.7-7.6,0-12.2-1.9-15.4-12.8l1.2-.9c5.2,3.7,8.1,4.9,12.3,4.9,4.2.1,8.6-.5,12.3-1.2,1-4.8,1.7-9.1,1.9-11.6.1-2.5-.2-3.3-1.9-4.6-1.5-1.2-3.5-2.1-5.9-2.9l.1-1.5c2.7-1.1,5.3-1.8,8.2-1.7,6.1,0,12.5,3.2,12.6,5.9,0,2.7-2.1,4.6-4.4,12.2l-.4,1.5ZM300.41,61.3c.4,2.5,1.1,6.1,3.1,9,3.9,5.7,9.7,7.4,17.8,7.4,8.8,0,12.6-1.9,14.6-1.9,3.9,0,8.6,1.8,8.6,6.1,0,2.6-2.5,4.4-6.5,5.3-3.2.8-7.6,1.5-14.3,1.5-15.3,0-24.1-6.2-25.2-17.4-.6-3.2-.2-7.1.2-9.9l1.7-.1ZM304.11,41.8c5.2-3.5,13.3-6.5,21.4-6.5,6.6,0,10.8,1.6,13,2.8,3,1.9,4.2,4.1,4.2,6.2,0,2.8-1.9,4.3-6.2,4.4-1.8.1-4,.2-6.6.8-4.4.6-8.7,1.9-12.2,3.2l-.9-1.3c2.9-2,7.8-5.8,8.8-6.9.5-.6.3-1.1-.5-1.4-2.1-.7-5.7-1.1-8.6-1.1-3.1,0-7.3.5-11.8,1.3l-.6-1.5Z"/><path d="M351.31,10.5v-1.6c2.6-1,5.2-1.9,7.8-1.9,6.8.1,16.3,7.5,16.3,11.6,0,2.8-2.7,4.4-3.8,9.5-2.1,9.6-4.3,23.3-4.3,34.8s3.1,15.7,14.9,15.7c14.6,0,29.8-9,38.6-20l1.8,1.3c-6.6,16.3-21.4,30.3-42,30.3-14,0-22.6-7.3-22.6-26,0-14.3,2.1-34.6,2.1-42.1,0-4.9-.5-6.7-2.3-8.3-1.7-1.4-3.2-2.1-6.5-3.3Z"/><path d="M448.7,6.2c1.9-1,5.4-2,8.1-2,3.9,0,7.3,1.1,9.4,2.6,2,1.6,1,4.7-1.9,13.3,7.3-2.4,9.6-4.3,10.9-4.3,2.3,0,5.2,1.6,5.2,4.8,0,2.2-1.4,3.5-3.1,4.6-3.5,2.2-9.7,4.2-16.5,5.6-3.3,10.2-9.3,27.2-16.8,39.2-2.5,3.9-4.5,6.5-7.3,6.5-3.4,0-5.3-3.3-5.3-6.7,0-2.4.6-4.3,2.4-6.5,6.6-8,13.4-18.1,17.8-31-2.5.3-4.8.4-7,.4-8.3,0-12.1-2.5-14.9-13.6l1.5-.8c4.2,3.2,7.4,5.6,13.8,5.6,2.9,0,6.4-.5,9.4-1.1.7-3.1,1.1-5.9,1.2-8.3,0-2.1-.8-3.3-2.5-4.6-1.6-1.2-3.4-1.9-4.4-2.3v-1.4ZM485.71,23.6c5.7-1.8,11.5-1.6,15.6-.4,6.8,2.1,11,6.6,11,12.2,0,3.2-1.1,5.5-4.3,5.5-3.9,0-6.6-3-12.1-2.9-2.9.1-6,1.2-7.5,3.3-1.5,2.2-1.3,5.6-.7,9.5.4,2.9,1.4,7.8,2.3,13.2,5.2,1.3,9.3,3.2,12.6,5.1,6.3,3.3,10.7,7.5,10.7,11.9,0,3.9-2.3,5.6-4.6,5.6-3,0-4.4-2.8-8.3-6.2-2.5-2.3-5.5-4.6-9.2-6.5.1,1.2.1,2.4.1,3.6,0,8.9-6.8,13.6-18.3,13.6s-17.6-5.6-17.6-13c0-8.1,8-15.5,22.6-15.5,1,0,2,0,3,.1-.2-3.2-.3-6.3-.3-9,0-6.3,1.1-10.7,4.1-14.2,3.8-4.6,8.9-6.5,12-8.1.5-.9.1-1.8-.9-2.6-2.2-1.9-5.8-3-10.1-3.4l-.1-1.8ZM481.31,70.3c-2.8-.7-5.9-1-9.2-1-8.1,0-11.9,3.7-11.9,6.9s2.7,5.7,9.7,5.7c7.4,0,11.4-3.2,11.4-8.9v-2.7Z"/><path d="M581.7,36.7c1.9-1.2,4.4-2.3,6.8-2.2,4.7.2,10.2,4.5,10.2,7.4,0,1.8-.5,4.1-.8,6.1-.4,1.9-.9,4.9-1.7,8.2,3.4,2.1,6.6,4.4,8.6,6.2,2.4,2.3,4.1,4.6,4,8.7-.1,2.5-1.5,5.2-5.2,5.2-3.5,0-6.3-3.6-11.4-8.3-6.8,13.4-20.8,21.2-40.1,24.2l-.9-1.8c17.1-6.1,27.4-16.2,32.6-29.2-6.3-4.7-15.1-9.7-30.2-10.4-4.1,8.2-9.1,20-11.4,23.4-4,6.2-7.4,8.8-12.9,8.8-5.8,0-10-9.4-9-17.7,1.2-10.6,14.9-17.5,27.1-19.5,5.1-8.9,13.5-22.5,15-25.7,1-2,.2-2.8-1.5-2.2-3,1.1-7.4,3.6-10.2,5.4-1.5,1.1-3.3,2.9-5.6,2.9-4.4,0-9.8-6-10.1-9.6-.2-1.9.2-4.1.5-5.9l1.4-.3c1.9,2.9,3.2,5.1,6.2,5.1,3.9,0,11.7-2.3,16.1-3.8,3.9-1.4,5.3-3.3,7.2-3.3,3.7,0,12.2,6,12.2,9.9,0,2.7-4.2,4.1-7.3,7.2-3.7,3.7-10.4,12.6-14.6,19.6,12.5.3,22.3,2.9,30,6.1.5-3,.7-5.8.7-7.7-.1-1.8-.2-2.6-1.5-3.6-1-.8-2.3-1.3-4.2-1.8v-1.4ZM544.4,51.1c-9.9,1.6-18.3,7-19.4,12.6-.7,3.5,1.6,7.7,3.9,7.7s3.6-1.1,5.8-4.3c2.4-3.5,6.8-10.9,9.7-16Z"/><path d="M649.6,23.3c3,3,4.9,5,8.3,5,12.5,0,43.5-3.7,53.5-4.9,3-.4,4.9-3.3,7.4-3.3,4.8,0,15.1,8.9,15.1,13.7,0,3.9-4.6,2.7-8.9,6-6.3,5-15.5,12.3-26.5,19.4,5.4,4.5,8.9,9.9,8.9,16.1,0,4.2-2.8,6.6-6.4,6.6-5.5,0-5.4-7.1-14.5-18.2-5.9-7.7-11.6-12.6-16-15.9l1.1-1.5c7.6,2,15.9,5.2,22.6,9.7,9-7.9,16.8-17.2,20.5-23.6.7-1.4.2-2.4-1.4-2.2-11.4,1.1-35.8,4.9-44.4,7.5-2.6.8-5.2,3.8-8,3.8-3.9,0-9.8-5.8-11.5-10-.7-1.8-1.2-4.4-1.2-7.6l1.4-.6Z"/><path d="M745.4,9.1c2.8-1.3,6.1-2.9,9.1-2.9,5,0,13.9,4.9,13.9,8.2,0,2.9-2.2,3.9-2.7,7.6-.6,3.9-.8,9.3-.9,15.1,10,1.1,19.3,3.8,24.9,7.1,4.4,2.6,7.3,5.6,7.3,10.9,0,3.2-2.2,6.1-5.8,6.1-6.4,0-6.8-5.5-14.5-12.6-3.1-2.6-6.7-5-12-7.5-.3,10.6-.2,23.4.1,32,.2,5.1.4,8.5.4,9.9,0,5.2-1.1,7.3-5.1,7.3-5.2,0-8-5.4-8-12.8,0-2.7.9-5,1.4-9.4.8-7.5.9-20.9.9-26.9,0-8.3-.3-20.9-1.1-25.4-.6-3.3-3.7-4.4-7.8-5.1l-.1-1.6Z"/><path d="M815.15,15.7v-1.6c2.5-1.2,5.4-2.3,8-2.3,4.4,0,13.6,5,13.6,8.6,0,2.6-2.2,4.1-2.4,8.2-.3,4.3-.2,21.9-.2,28.7,0,5.3-2,7.5-5.4,7.5s-6.5-5-6.5-10.9c0-2.5,1.4-5.4,1.4-12.3,0-4.9,0-15.5-.6-19.6-.2-2-.7-2.8-2.2-3.7-1.4-.9-3.5-1.8-5.7-2.6ZM827.35,92.01l-1.1-1.8c19-10.4,29-23.5,30.5-43.3.7-7.5.6-21,.2-26.7-.1-2.3-.3-3.4-2.2-4.5-1.5-1-3.7-1.6-6-2.3l-.1-1.6c2.7-2,6.8-4.3,9.4-4.3,4.2,0,13.1,5,13.1,8,0,2.6-2,3.7-2.2,6.7-.3,5.8-.9,18.6-1.2,24.7-1.4,23.9-15.7,38-40.4,45.1Z"/><path d="M945.71,21.1c2.5-.8,4.2-3.2,6.4-3.2,3,0,13.2,5.3,13.2,9.4,0,2.8-3.9,3.8-5.7,6.8-14.7,25.5-35.3,45.8-68,57.2l-1.2-1.9c25.4-13.6,48.6-38.9,57-59.8.5-1.4,0-1.9-1.2-1.9-2.1,0-9.3,1.6-12.2,2.5-2.1.7-3.7,1.3-5.6,1.3-1.2,0-2.8-1-4.6-2.4-8.7,10.6-20.3,20.5-33.2,26.1l-1.3-1.8c16.2-13.3,29.3-33.1,29.3-39.5,0-1.9-2.4-4.3-5.6-6l.3-1.4c1.9-.4,3.7-.8,7-.6,6.6.3,14.3,4.5,14.3,7,0,2.2-1.3,2.6-3,5.2-1.1,1.9-2.4,3.7-3.7,5.6,3.5,0,15-1.6,17.8-2.6Z"/><path d="M980.36,16.4c2.2,2.9,5,5.8,8.4,5.8,6.9,0,24.4-3.3,29.2-4.5,2.5-.6,4.2-3.5,6.3-3.5,4.3,0,13.3,7.7,13.3,10.9,0,2.9-4.6,4.4-5.8,6.1-3.4,5-8.6,13.6-15.1,20.8,16.4,5.1,31.1,14.6,31.1,25.6,0,3.1-2.2,6.5-6.2,6.5s-6.5-3-9.9-8.3c-4.6-7.6-8.5-14.7-17.8-20.9-9.2,9.4-24.7,23.3-49,30.8l-1.1-2.1c23.5-12.2,48.1-37.7,56.2-57.2.6-1.5,0-1.9-1.1-1.9-4,.4-16.8,4.2-21.8,5.9-3.3,1.1-4.5,3.5-7.3,3.5-4.4,0-9.1-5.8-10.3-9.5-.7-2-.9-4.6-.8-7.3l1.7-.7Z"/></g></svg>