<?xml version="1.0" encoding="UTF-8"?><svg id="_レイヤー_2" xmlns="http://www.w3.org/2000/svg" viewBox="0 0 956.74 65.32"><g id="_レイヤー_1-2"><path d="M22.54,23.84v2.67c0,.63.21,1.05.63,1.27s1.17.32,2.25.32c2.23,0,3.57-.32,4.04-.95.42-.59.79-1.37,1.09-2.36.02-.12.08-.18.18-.18.21,0,.32.09.32.28l-.07,1.37c0,.47.26.79.77.95.54.19.81.53.81,1.02,0,.61-.43,1.11-1.3,1.51-1.03.38-3.09.56-6.19.56-2.02,0-3.38-.28-4.08-.84-.61-.49-.91-1.34-.91-2.53v-3.09h-7.03c-.98,5.04-5.19,8.25-12.62,9.63-.26.05-.39-.11-.39-.46,0-.16.06-.27.18-.32,3.09-1.05,5.39-2.27,6.89-3.66,1.59-1.41,2.57-3.14,2.92-5.2h-5.2c-1.22,0-2.61.14-4.18.42l-.63-2.64c1.95.28,3.55.42,4.82.42h10.09v-3.97h-7.28c-1.12,0-2.47.14-4.04.42l-.63-2.64c1.88.28,3.43.42,4.68.42h7.28v-.14c0-1.83-.09-3.54-.28-5.13,3.49.4,5.24.91,5.24,1.55,0,.35-.72.8-2.14,1.34v2.39h7.56c1.15-1.38,1.84-2.07,2.07-2.07s1.2.69,2.88,2.07c.54.42.81.81.81,1.16,0,.42-.32.63-.95.63h-12.38v3.97h8.86c1.15-1.45,1.84-2.18,2.07-2.18s1.22.73,2.95,2.18c.54.42.81.81.81,1.16,0,.42-.32.63-.95.63h-8.93ZM38.6,6.4v-.28c0-2.3-.13-4.34-.39-6.12,2.55.28,4.21.55,4.96.81.59.21.88.49.88.84,0,.47-.79.97-2.36,1.51v3.23h14.77c1.62-1.92,2.58-2.88,2.88-2.88.26,0,1.48.8,3.66,2.39.87.61,1.3,1.16,1.3,1.65,0,.42-.32.63-.95.63h-21.66l.07,2.25c0,1.1-.65,1.65-1.93,1.65-.91,0-1.37-.46-1.37-1.37,0-.02.01-.27.04-.74.05-.52.08-1.11.11-1.79h-15.12c.02.54.06,1.09.11,1.65.02.35.04.55.04.6,0,1.1-.68,1.65-2.04,1.65-.91,0-1.37-.46-1.37-1.37,0-.05.02-.33.07-.84.02-.54.06-1.1.11-1.69H6.93c-2.48,0-4.5.14-6.05.42L.21,5.98c1.66.28,3.9.42,6.71.42h13.46c0-2.48-.13-4.62-.39-6.4,2.55.28,4.21.55,4.96.81.59.21.88.49.88.84,0,.49-.79,1.02-2.36,1.58v3.16h15.12ZM18.63,59.98c1.48-1.88,2.89-4.39,4.25-7.56H5.62c-.94,0-2.38.14-4.32.42l-.67-2.64c1.62.28,3.28.42,4.99.42h49.75c1.48-1.69,2.37-2.53,2.67-2.53.26,0,1.31.7,3.16,2.11.82.61,1.23,1.14,1.23,1.58,0,.42-.32.63-.95.63H27.21c-2.27,3.12-4.43,5.64-6.47,7.56,8.37-.21,17.03-.76,25.98-1.65-1.41-.91-3.4-1.97-5.98-3.16-.07-.05-.11-.12-.11-.21,0-.37.14-.53.42-.46,4.36.66,8.09,1.93,11.18,3.83,2.72,1.66,4.08,3.29,4.08,4.89,0,1.05-.46,1.58-1.37,1.58-.49,0-1.36-.62-2.6-1.86-1.55-1.55-2.87-2.72-3.97-3.52-10.57,1.85-23.6,3.14-39.09,3.87-.47,1.36-.9,2.04-1.3,2.04-.7,0-1.32-1.88-1.86-5.62,1.73.23,3.94.35,6.61.35s4.62-.02,5.91-.07ZM14.98,40.39v-4.82h-5.91c-1.03,0-2.33.14-3.9.42l-.63-2.64c1.43.28,2.94.42,4.54.42h5.91c0-1.92-.09-3.62-.28-5.1,3.4.38,5.1.88,5.1,1.51,0,.4-.69.93-2.07,1.58v2h7.07c1.12-1.34,1.82-2,2.07-2,.21,0,1.17.67,2.88,2,.52.42.77.81.77,1.16,0,.42-.3.63-.91.63h-11.88v4.54c5.6-.77,10.14-1.55,13.61-2.32.26-.05.39.12.39.49,0,.14-.06.25-.18.32-6.09,2.2-14.98,4.03-26.65,5.48-.26.94-.46,1.49-.6,1.65-.09.14-.3.21-.63.21-.47,0-1.09-1.65-1.86-4.96.49.05,1.52.07,3.09.07,2.84,0,6.2-.22,10.09-.67ZM13.54,46.79l-.63-2.71c1.59.28,3.27.42,5.03.42h27.42c1.38-1.69,2.23-2.53,2.53-2.53.28,0,1.31.73,3.09,2.18.77.61,1.16,1.11,1.16,1.51,0,.42-.32.63-.95.63H17.93c-1.12,0-2.59.16-4.39.49ZM43.84,28.93c3.61,2.23,5.41,4.34,5.41,6.33,0,1.15-.48,1.72-1.44,1.72-.49,0-1.16-.67-2-2-.94-1.24-1.95-2.37-3.02-3.38-.09.21-.25.5-.46.88-.21.38-.35.63-.42.77-2.51,4.1-6.21,7.43-11.11,9.98-.02.02-.05.04-.07.04-.28,0-.42-.18-.42-.53,0-.07.02-.12.07-.14,4.15-2.98,7.27-6.48,9.35-10.51.42-.82.76-1.59,1.02-2.32-1.78-1.48-3.68-2.69-5.7-3.66-.07-.05-.11-.11-.11-.18,0-.33.14-.46.42-.39,1.92.38,3.94,1.07,6.05,2.07.37-1.43.7-3.63.98-6.61h-1.79c-2.62,0-4.71.14-6.26.42l-.67-2.64c1.97.28,4.28.42,6.93.42h1.86c.05-.82.07-2.12.07-3.9,0-.98-.12-2.4-.35-4.25,2.53.35,4.1.62,4.71.81.52.19.77.45.77.77,0,.52-.75,1.08-2.25,1.69,0,2.3-.02,3.93-.07,4.89h6.43c1.03-1.1,1.68-1.65,1.93-1.65.23,0,.86.46,1.86,1.37.77.66,1.16,1.16,1.16,1.51,0,.26-.5.73-1.51,1.41,0,4.64.39,8.26,1.16,10.86.49,1.78,1.25,3.32,2.29,4.61.73.87,1.23,1.3,1.51,1.3.44,0,1.58-2.52,3.41-7.56.02-.07.07-.11.14-.11s.15.02.25.07c.19.09.27.21.25.35-1.01,5.11-1.51,7.91-1.51,8.4,0,.54.16.97.49,1.3.44.45.67.9.67,1.37,0,.91-.55,1.37-1.65,1.37-1.24,0-2.66-.84-4.25-2.53-1.92-1.99-3.34-4.54-4.25-7.63-.84-2.74-1.32-6.96-1.44-12.66h-7.07c-.28,3.42-.74,6.06-1.37,7.91Z"/><path d="M98.3,31.46c-2.95,3.4-5.89,6.18-8.82,8.33-.07.05-.14.07-.21.07-.4,0-.6-.2-.6-.6,0-.07.02-.13.07-.18,2.39-2.23,4.91-5.2,7.56-8.93,2.18-3.09,3.97-6.05,5.38-8.86,1.1-2.2,1.8-4.02,2.11-5.45,3.45,1.48,5.17,2.58,5.17,3.3,0,.61-.98.91-2.95.91-1.48,2.88-3.47,5.94-5.98,9.18,2.34.4,3.52.93,3.52,1.58,0,.45-.74,1-2.21,1.65v11.43l.07,19.23c0,1.15-.72,1.72-2.14,1.72-1.01,0-1.51-.46-1.51-1.37,0-.19.01-1.04.04-2.57.12-5.44.22-12.33.32-20.67.02-.91.09-3.84.21-8.79ZM90.42,20.07s-.09.04-.14.04c-.12,0-.22-.06-.32-.18-.14-.14-.21-.28-.21-.42,0-.07.02-.12.07-.14,5.32-4.71,9.4-9.82,12.23-15.33.68-1.29,1.21-2.54,1.58-3.76,3.66,1.43,5.48,2.48,5.48,3.16,0,.63-1.11.95-3.34.95-4.06,6.45-9.18,11.67-15.36,15.68ZM106.38,55.51c-.05.07-.14.11-.28.11-.4,0-.6-.16-.6-.49,0-.02.01-.05.04-.07,1.83-4.12,3.33-9.01,4.5-14.66,1.01-4.87,1.51-9.2,1.51-12.97,0-.59-.02-1.09-.07-1.51,3.66.66,5.48,1.32,5.48,2,0,.47-.7.93-2.11,1.37-1.36,10.41-4.18,19.15-8.47,26.23ZM120.48,18.35h-5.91c-1.31,0-2.78.12-4.39.35l-.63-2.6c1.59.3,3.27.46,5.03.46h5.91c0-8.53-.14-13.77-.42-15.71,2.58.3,4.25.59,5.03.84.59.19.88.46.88.81,0,.52-.8,1.1-2.39,1.76v12.3h6.19c1.43-1.78,2.3-2.67,2.6-2.67.28,0,1.31.74,3.09,2.21.77.68,1.16,1.22,1.16,1.62,0,.42-.32.63-.95.63h-12.09v11.53c0,14.2.07,24.23.21,30.09,0,.68.01,1.44.04,2.29.02.47.04.76.04.88,0,1.1-.74,1.65-2.21,1.65-1.01,0-1.51-.46-1.51-1.37,0-.12.01-.49.04-1.12.02-.75.05-1.48.07-2.18.16-6.19.25-16.01.25-29.46v-12.3ZM132.43,12.66c-.68,0-1.18-.55-1.51-1.65-.73-2.37-2.06-4.44-4.01-6.22-.05-.05-.07-.11-.07-.18,0-.23.14-.35.42-.35h.07c2.06.77,3.73,1.82,4.99,3.13,1.08,1.12,1.62,2.21,1.62,3.27,0,1.34-.5,2-1.51,2ZM133.59,51.54c-.59,0-1-.4-1.23-1.2-.19-.7-.35-2.03-.49-3.97-.54-7.1-1.98-13.68-4.32-19.72-.05-.16.05-.28.28-.35.05-.02.11-.04.18-.04.09,0,.15.02.18.07,2.2,3.47,4.01,7.38,5.41,11.74,1.2,3.77,1.79,6.96,1.79,9.56s-.6,3.9-1.79,3.9ZM146.57,23.91v18.42c0,5.79.06,10.44.18,13.96.07,1.99.11,3.11.11,3.34,0,1.76-.87,3.11-2.6,4.04-.94.47-1.77.7-2.5.7-.54,0-.88-.36-1.02-1.09-.07-.77-.49-1.36-1.27-1.76-.82-.42-2.38-.86-4.68-1.3-.19-.05-.28-.22-.28-.53,0-.33.09-.47.28-.42,3.56.42,6,.63,7.31.63.82,0,1.23-.41,1.23-1.23V23.91h-4.18c-1.45,0-2.99.12-4.61.35l-.63-2.57c1.66.28,3.41.42,5.24.42h9.35c1.59-1.92,2.53-2.88,2.81-2.88s1.36.8,3.23,2.39c.87.7,1.3,1.25,1.3,1.65,0,.42-.33.63-.98.63h-8.3ZM137.04,8.47l-.63-2.67c1.88.35,3.55.53,5.03.53h5.7c1.48-1.92,2.37-2.88,2.67-2.88.28,0,1.36.79,3.23,2.36.82.73,1.23,1.29,1.23,1.69,0,.42-.32.63-.95.63h-11.88c-1.31,0-2.78.12-4.39.35Z"/><path d="M202.68,22.82c-.77.19-1.92.43-3.45.74-1.92.28-3.36.42-4.32.42-4.22,0-7.17-1.39-8.86-4.18-.09-.16-.14-.33-.14-.49,0-.28.12-.42.35-.42.09,0,.29.09.6.28,1.99,1.52,4.29,2.29,6.89,2.29.82,0,1.95-.09,3.38-.28,2.62-.49,4.89-1.02,6.79-1.58.91-2.53,1.76-5.14,2.53-7.84.28-1.05.42-1.85.42-2.39,0-.89-.43-1.7-1.3-2.43-.91-.8-1.95-1.3-3.09-1.51-.52-.09-.77-.25-.77-.46,0-.16.16-.33.49-.49.68-.19,1.23-.28,1.65-.28,1.12,0,2.44.38,3.94,1.12,1.29.66,2.36,1.43,3.2,2.32.47.56.7,1.09.7,1.58,0,.54-.26,1-.77,1.37-.8.59-1.73,2.26-2.81,5.03-.3.68-.69,1.69-1.16,3.02,1.31-.42,2.58-.9,3.8-1.44.8-.3,1.37-.63,1.72-.98.44-.44,1.22-.67,2.32-.67.52,0,1.07.07,1.65.21,1.1.26,1.65.74,1.65,1.44,0,.54-.67,1.04-2,1.51-4.13,1.5-7.61,2.64-10.44,3.41-.49,1.38-1.25,3.41-2.29,6.08-.94,2.48-1.62,4.3-2.04,5.45-3.61,9.54-6.95,17.6-10.02,24.19-.38,1.05-.97,1.58-1.79,1.58-1.2,0-1.79-.6-1.79-1.79,0-.3.12-.74.35-1.3,3.96-7.9,7.49-15.66,10.58-23.27,1.5-3.56,2.85-6.97,4.04-10.23ZM211.75,43.7c.26-.37.53-.56.81-.56.23,0,.35.12.35.35,0,.09-.05.25-.14.46-.68,1.57-1.02,3.15-1.02,4.75,0,2.93,1.32,5.06,3.97,6.4,2.3,1.15,5.46,1.72,9.49,1.72,1.88,0,3.9-.2,6.08-.6.82-.19,1.6-.28,2.36-.28,2.79,0,4.18.72,4.18,2.14,0,.91-1.08,1.5-3.23,1.76-2.6.28-5.44.42-8.51.42-4.73,0-8.48-.76-11.25-2.29-3.16-1.83-4.75-4.55-4.75-8.16,0-2.18.55-4.22,1.65-6.12ZM212.1,32.59c-.28.21-.54.32-.77.32-.28,0-.42-.12-.42-.35,0-.21.19-.48.56-.81,1.9-1.62,4.04-2.89,6.43-3.83,2.39-.96,4.93-1.44,7.63-1.44,4.08,0,7.16.87,9.25,2.6.54.4.81.9.81,1.51,0,.82-.46,1.23-1.37,1.23-.3,0-1.04-.22-2.21-.67-.68-.19-1.28-.28-1.79-.28-1.29,0-2.57.36-3.83,1.09-1.62.8-3.43,1.88-5.45,3.23-.33.23-.6.35-.81.35-.28,0-.42-.16-.42-.49,0-.16.16-.41.49-.74.42-.35,1.04-.89,1.86-1.62,1.78-1.55,3.13-2.73,4.04-3.55-.68-.09-1.45-.14-2.32-.14-4.13.09-8.02,1.29-11.67,3.59Z"/><path d="M285.19,6.68c-.28-.07-.42-.19-.42-.35s.14-.34.42-.53c.49-.23,1.02-.35,1.58-.35,1.2,0,2.36.36,3.48,1.09,2.09,1.29,3.53,2.64,4.32,4.04.28.56.42,1.03.42,1.41,0,.47-.19.86-.56,1.16-.73.54-1.17,1.5-1.34,2.88-.59,6.02-1,10.97-1.23,14.84-.38,8.06-.56,13.8-.56,17.23s.71,5.6,2.14,6.82c1.12.98,2.91,1.48,5.34,1.48,4.52,0,9.01-.94,13.46-2.81,5.27-2.2,10.15-5.47,14.62-9.81.26-.23.48-.35.67-.35.23,0,.35.14.35.42,0,.23-.12.5-.35.81-3.4,4.55-7.97,8.29-13.71,11.21-4.88,2.55-9.84,3.83-14.91,3.83-3.49,0-6.15-.96-7.98-2.88-1.69-1.76-2.53-4.23-2.53-7.42,0-4.15.2-10.42.6-18.81.3-8.27.5-14.11.6-17.51v-.74c0-2.06-.47-3.47-1.41-4.22-.77-.7-1.78-1.18-3.02-1.44Z"/><path d="M381.9,20.46c-2.91.42-5.23.63-6.96.63-1.17,0-2.13-.09-2.88-.28-2.37-.49-4.17-1.78-5.41-3.87-.14-.23-.21-.43-.21-.6,0-.28.12-.42.35-.42.21,0,.43.12.67.35,1.38,1.52,3.45,2.29,6.19,2.29,3.02,0,6.19-.37,9.49-1.12.63-1.5,1.32-3.38,2.07-5.62.63-1.95.95-3.27.95-3.97,0-1.01-.6-1.85-1.79-2.53-.75-.42-1.57-.68-2.46-.77-.28,0-.42-.12-.42-.35s.21-.44.63-.63c.35-.16.71-.25,1.09-.25,2.65,0,5.14,1.01,7.49,3.02.54.42.81.95.81,1.58s-.32,1.14-.95,1.44c-.8.4-1.56,1.34-2.29,2.81-.14.3-.34.77-.6,1.41-.56,1.34-1,2.36-1.3,3.06,1.76-.47,3.4-1,4.92-1.58.19-.09.57-.28,1.16-.56,1.01-.49,1.84-.74,2.5-.74.8,0,1.5.14,2.11.42.56.26.84.57.84.95,0,.82-.62,1.44-1.86,1.86-3.26,1.12-6.94,2.09-11.04,2.88-1.57,3.84-2.88,6.91-3.94,9.21-2.91,6.84-6.13,13.57-9.67,20.18-.54.96-1.14,1.44-1.79,1.44-.45,0-.86-.18-1.23-.53-.33-.33-.49-.7-.49-1.12,0-.47.14-.95.42-1.44,4.27-7.59,7.63-14,10.09-19.23,1.64-3.56,2.81-6.2,3.52-7.91ZM397.09,24.54s-.06.04-.11.04c-.35,0-.53-.13-.53-.39,0-.21.14-.4.42-.56,1.99-1.05,4.28-1.58,6.86-1.58,2.3,0,4.62.43,6.96,1.3,1.99.73,3.63,1.64,4.92,2.74,2.02,1.64,3.02,3,3.02,4.08,0,.87-.5,1.3-1.51,1.3-.49,0-1-.27-1.51-.81-2.06-2.06-4.23-3.09-6.5-3.09-1.92,0-3.67.66-5.24,1.97-1.59,1.34-2.39,3.04-2.39,5.1,0,1.95.3,4.41.91,7.38.19.94.48,2.25.88,3.94.33,1.41.55,2.39.67,2.95,2.79.91,5.51,2.07,8.16,3.48,2.25,1.22,3.88,2.31,4.89,3.27.82.75,1.23,1.5,1.23,2.25,0,1.15-.65,1.72-1.93,1.72-.52,0-1-.19-1.44-.56-3.21-2.93-6.73-5.21-10.55-6.86.05.4.07.76.07,1.09,0,2.44-.86,4.39-2.57,5.87-1.78,1.64-4.41,2.46-7.88,2.46s-5.85-.72-7.63-2.14c-1.57-1.22-2.36-2.85-2.36-4.89,0-2.77,1.43-4.77,4.29-6.01,1.85-.8,4-1.2,6.43-1.2,1.97,0,3.91.19,5.84.56-.77-5.46-1.16-9.4-1.16-11.81,0-3.09,1.04-5.55,3.13-7.38,1.71-1.52,3.98-2.5,6.82-2.92v-.14c-2.48-1.2-4.75-1.79-6.79-1.79-1.76,0-3.56.21-5.41.63ZM400.85,50.98c-2.39-.96-4.91-1.44-7.56-1.44-2.32,0-4.2.5-5.62,1.51-1.29.89-1.93,2.02-1.93,3.38,0,1.52.71,2.7,2.14,3.52,1.29.73,3.05,1.09,5.27,1.09,2.69,0,4.66-.62,5.91-1.86s1.86-2.91,1.86-4.99c0-.37-.02-.77-.07-1.2Z"/><path d="M472.57,34.21c3.38-7.36,5.41-11.94,6.12-13.75,1.24-3.02,2.39-6.22,3.45-9.6.05-.19.07-.37.07-.56,0-.16-.09-.25-.28-.25-.07,0-.14.01-.21.04-2.95.84-5.74,1.68-8.37,2.5-1.55.47-2.62.88-3.23,1.23-.4.23-.81.35-1.23.35-.54,0-.96-.19-1.27-.56-1.59-1.9-2.39-3.7-2.39-5.41,0-.54.14-1.02.42-1.44.14-.19.29-.28.46-.28.12,0,.21.14.28.42.28,1.15.74,2.06,1.37,2.74.61.63,1.42.95,2.43.95,1.88,0,5.05-.75,9.53-2.25.75-.21,1.46-.67,2.14-1.37.44-.42.81-.63,1.09-.63.63,0,1.3.16,2,.49,1.64.77,2.46,1.45,2.46,2.04,0,.54-.19,1.07-.56,1.58-1.17,2.06-2.91,5.59-5.2,10.58-.8,1.78-2.79,6.07-5.98,12.87,6.45,0,13,1.21,19.65,3.62.84-3.09,1.44-6.02,1.79-8.79.05-.49.07-.96.07-1.41,0-1.78-.59-3.07-1.76-3.87-.8-.49-1.46-.82-2-.98-.23-.09-.35-.22-.35-.39,0-.47.46-.7,1.37-.7.4,0,.86.07,1.37.21,1.03.3,2.12.87,3.27,1.69,1.12.82,2,1.7,2.64,2.64.28.42.42.9.42,1.44,0,.38-.16.69-.49.95-.59.45-1.02,1.18-1.3,2.21-.54,2.3-1.23,4.96-2.07,7.98,2.02.77,4.25,1.85,6.71,3.23,1.99,1.12,3.4,2.03,4.22,2.71,1.15,1.03,1.72,2.11,1.72,3.23,0,.4-.19.77-.56,1.12-.35.3-.74.46-1.16.46-.45,0-1.09-.36-1.93-1.09-3.33-2.72-6.67-4.91-10.02-6.57-2.04,4.9-4.61,9.08-7.7,12.55-3.26,3.54-7.45,6.42-12.59,8.65-.28.14-.55.21-.81.21-.38,0-.56-.16-.56-.49,0-.23.16-.46.49-.67,4.73-2.79,8.53-5.95,11.39-9.49,2.98-3.77,5.25-7.73,6.82-11.88-6.56-2.79-13.11-4.18-19.65-4.18-1.88,3.66-3.55,6.54-5.03,8.65-3.12,4.36-6.22,6.54-9.32,6.54-1.45,0-2.66-.47-3.62-1.41-1.03-.96-1.55-2.3-1.55-4.01,0-3.26,1.65-6.03,4.96-8.33,3.35-2.27,7.51-3.45,12.48-3.52ZM471.48,36.42c-4.52.23-7.89,1.15-10.09,2.74-2.62,1.9-3.94,3.96-3.94,6.19s1.01,3.3,3.02,3.3c1.57,0,3.36-1.15,5.38-3.45,1.85-2.13,3.73-5.06,5.62-8.79Z"/><path d="M575.16,42.61c3.66,3.49,5.48,6.08,5.48,7.77,0,1.59-.71,2.39-2.14,2.39-.82,0-1.62-.67-2.39-2-3.96-6.56-8.99-11.74-15.08-15.54-.38-.3-.56-.55-.56-.74,0-.33.16-.49.49-.49.28,0,.76.14,1.44.42,4.36,1.83,8.06,4.08,11.11,6.75,6.4-5.93,12.23-11.96,17.51-18.11.28-.3.42-.57.42-.81s-.14-.35-.42-.35c-.19,0-.59.04-1.2.11-.61.05-1.08.08-1.41.11-1.85.14-7.03.67-15.54,1.58-5.09.52-11.29,1.35-18.6,2.5-1.8.26-3.05.6-3.73,1.02-.54.33-1.22.49-2.04.49-.91,0-2.23-.87-3.94-2.6-1.78-1.95-2.67-3.61-2.67-4.99,0-.73.09-1.09.28-1.09.16,0,.36.14.6.42.66.96,1.53,1.85,2.64,2.67.73.52,1.84.77,3.34.77.98,0,2.52-.07,4.61-.21,7.78-.61,19.49-1.69,35.12-3.23,1.1-.12,1.88-.36,2.32-.74.56-.47,1.07-.7,1.51-.7.61,0,1.21.19,1.79.56,1.62,1.24,2.77,2.27,3.45,3.09.77.87,1.16,1.57,1.16,2.11,0,.73-.34,1.14-1.02,1.23-.16.02-.43.05-.81.07-.28.02-.52.05-.7.07-.82.07-1.61.48-2.36,1.23-.75.63-4.02,3.5-9.81,8.61-3.61,3.19-6.56,5.73-8.86,7.63Z"/><path d="M659.92,28.23v12.66l.21,17.4c0,1.59-.5,2.39-1.51,2.39-.52,0-1.07-.39-1.65-1.16-.35-.47-.68-1.24-.98-2.32-.26-.96-.39-1.82-.39-2.57,0-.3.07-.63.21-.98.16-.35.26-.6.28-.74.14-.68.25-1.89.32-3.62.09-5.84.14-10.6.14-14.31.05-5.18.07-11.47.07-18.88,0-2.02-.02-3.71-.07-5.1-.07-1.59-.43-2.62-1.09-3.09-1.01-.75-2.26-1.37-3.76-1.86-.28-.07-.42-.22-.42-.46,0-.16.21-.33.63-.49.35-.14.67-.21.95-.21,1.83,0,3.84.6,6.05,1.79,1.92,1.1,2.88,2.13,2.88,3.09,0,.66-.36,1.31-1.09,1.97-.3.23-.49,1.09-.56,2.57-.16,2.72-.25,5.68-.25,8.89,0,1.01.01,2.13.04,3.38,4.31.38,8.37,1.38,12.16,3.02,4.95,2.04,7.42,4.27,7.42,6.68,0,1.41-.5,2.11-1.51,2.11-.73,0-1.78-.7-3.16-2.11-1.57-1.55-3.52-3.04-5.84-4.46-2.95-1.73-5.98-2.93-9.07-3.59Z"/><path d="M755.44,5.77c-.38-.07-.56-.21-.56-.42,0-.16.09-.29.28-.39.7-.37,1.5-.56,2.39-.56,2.16,0,4.45.82,6.89,2.46.82.52,1.23,1.09,1.23,1.72,0,.42-.19.88-.56,1.37-.63.87-.95,2.13-.95,3.8-.14,10.36-.43,17.25-.88,20.67-.61,4.83-1.85,8.79-3.73,11.88-5.02,8.27-13.08,13.75-24.19,16.42-.12.02-.23.04-.35.04-.4,0-.6-.19-.6-.56,0-.26.19-.47.56-.63,5.95-2.02,10.96-4.86,15.01-8.54,3.73-3.38,6.41-7.24,8.05-11.6,1.59-4.36,2.39-12.3,2.39-23.84,0-.59-.01-2.6-.04-6.05,0-2.02-.28-3.34-.84-3.97-.56-.68-1.93-1.28-4.11-1.79ZM737.23,9.56c-.28-.05-.42-.16-.42-.35,0-.16.16-.3.49-.42.59-.19,1.11-.28,1.58-.28.8,0,1.57.16,2.32.49,1.83.73,3.29,1.69,4.39,2.88.38.4.56.83.56,1.3,0,.38-.16.79-.49,1.23-.54.61-.81,1.78-.81,3.52-.16,5.04-.28,11.93-.35,20.67,0,1.34-.46,2-1.37,2-.52,0-1.09-.46-1.72-1.37-.49-.68-.74-1.8-.74-3.38,0-.77.07-1.35.21-1.72.21-.8.34-1.57.39-2.32.19-5.09.28-10.58.28-16.49,0-1.95-.34-3.28-1.02-4.01-.63-.7-1.73-1.29-3.3-1.76Z"/><path d="M842.27,20.36c-.82,0-1.97-.37-3.45-1.12-2.48,3.35-5.4,6.69-8.75,10.02-3.3,3.3-6.34,5.89-9.11,7.77-.61.38-1,.56-1.16.56-.33,0-.49-.21-.49-.63,0-.23.41-.71,1.23-1.44,6.3-5.67,11.92-12.52,16.84-20.53,1.34-2.2,2-3.69,2-4.46,0-.49-.36-1.04-1.09-1.65-.61-.49-1.28-.88-2-1.16-.33-.12-.49-.27-.49-.46,0-.42.6-.63,1.79-.63,1.05,0,2.38.53,3.97,1.58,2.06,1.41,3.09,2.59,3.09,3.55,0,.54-.39,1.04-1.16,1.51-.35.23-.79.63-1.3,1.2,0,.02-.74,1.09-2.21,3.2.3.07.66.11,1.05.11.82,0,2.03-.09,3.62-.28,3.77-.4,7.04-.86,9.81-1.37.59-.12,1.11-.44,1.58-.98.38-.37.7-.56.98-.56.47,0,1,.16,1.58.49,1.2.77,2.06,1.41,2.6,1.9.68.61,1.02,1.14,1.02,1.58,0,.49-.46.97-1.37,1.44-.66.38-1.11.8-1.37,1.27-6,10.97-12.73,19.98-20.18,27.04-5.3,5.06-11.12,9.07-17.47,12.02-.96.42-1.59.63-1.9.63-.23,0-.35-.12-.35-.35,0-.26.19-.5.56-.74,14.02-8.44,25.69-21.35,35.02-38.74.68-1.24,1.02-2.06,1.02-2.46,0-.19-.16-.28-.49-.28-.75,0-3.9.43-9.46,1.3-.84.14-1.56.28-2.14.42-.87.19-1.48.28-1.83.28Z"/><path d="M933.47,36.14c-3.94,4.55-8.71,8.7-14.31,12.45-4.52,3.05-9.06,5.48-13.61,7.31-1.05.38-1.73.56-2.04.56-.38,0-.56-.14-.56-.42,0-.23.21-.46.63-.67,9.33-4.73,17.47-10.76,24.43-18.07,5.3-5.55,9.86-11.64,13.68-18.25.59-1.03.88-1.6.88-1.72,0-.14-.14-.21-.42-.21-1.08,0-2.24.07-3.48.21-6.02.66-11.66,1.48-16.91,2.46-1.31.26-2.18.5-2.6.74-.7.38-1.32.56-1.86.56-1.15,0-2.67-.98-4.57-2.95-1.29-1.29-1.93-2.46-1.93-3.52,0-.77.14-1.16.42-1.16.09,0,.32.21.67.63.59.8,1.39,1.52,2.43,2.18.8.47,1.93.7,3.41.7s3.26-.14,5.55-.42c2.06-.26,5.24-.61,9.53-1.05,3.98-.4,6.81-.69,8.47-.88.8-.12,1.35-.34,1.65-.67.42-.42.86-.63,1.3-.63.56,0,1.21.27,1.93.81.89.66,1.64,1.32,2.25,2,.33.4.49.83.49,1.3s-.64.9-1.93,1.37c-.59.21-1.17.76-1.76,1.65-2.81,4.48-6.27,9.25-10.37,14.31,10.92,4.92,17.95,9.94,21.09,15.05.54.87.81,1.81.81,2.81,0,1.22-.6,1.79-1.79,1.72-.82,0-1.69-.64-2.6-1.93-2.58-3.49-5.59-6.75-9.04-9.77-3.54-3.09-6.82-5.26-9.84-6.5Z"/></g></svg>